<svg width="213" height="74" fill="none" xmlns="http://www.w3.org/2000/svg"><g clip-path="url(#clip0)"><path d="M39.69 39.184L74 1.268 72.736 0 34.911 34.3a15.245 15.245 0 0 1 4.78 4.884z" fill="#50ABE3"/><path d="M26.865 53.91c-3.708 0-6.714-3.011-6.714-6.726a6.719 6.719 0 0 1 6.714-6.719c3.707 0 6.71 3.01 6.71 6.719 0 3.715-3.003 6.727-6.71 6.727zm3.48-17.84L27.684.077h-1.79l-2.669 36.048c-.585.192-1.15.432-1.693.71L2.816 21.843l-1.268 1.268 14.975 18.737a11.83 11.83 0 0 0-.747 1.798L0 46.279v1.791l15.77 2.63c.205.65.466 1.274.777 1.872L7.365 65.439l1.266 1.268 12.853-9.192c.57.297 1.168.551 1.79.752L25.893 74h1.79l2.608-15.678c.663-.205 1.299-.47 1.907-.782l18.717 14.992 1.267-1.268-14.975-18.737c.292-.577.544-1.171.743-1.795l35.897-2.661v-1.792L37.94 43.616a11.659 11.659 0 0 0-7.595-7.545" fill="#252323"/><path d="M98.593 32.67c0 .658.178 1.194.534 1.609.356.414.833.753 1.436 1.017l1.749.793.547-.574a4.85 4.85 0 0 0 .902-1.354c.2-.464.302-.997.302-1.6 0-.382-.072-.712-.214-.99a1.815 1.815 0 0 0-.593-.683 2.617 2.617 0 0 0-.903-.39 4.96 4.96 0 0 0-1.134-.123c-.383 0-.734.048-1.054.142-.318.098-.593.24-.826.431a2.029 2.029 0 0 0-.548.719 2.379 2.379 0 0 0-.198 1.004zm1.312 6.126l-.437.437a6.586 6.586 0 0 0-1.093 1.436c-.292.52-.438 1.135-.438 1.846 0 .41.074.772.219 1.088.145.313.35.576.608.785.26.21.57.37.93.479.359.109.759.164 1.197.164.437 0 .838-.051 1.202-.151.366-.1.678-.253.936-.457.26-.206.46-.466.602-.78.141-.314.213-.691.213-1.128 0-.711-.176-1.296-.527-1.756-.352-.46-.822-.823-1.416-1.088l-1.996-.875zm.986 9.516c-.958 0-1.855-.112-2.694-.335-.838-.222-1.568-.562-2.188-1.018a4.897 4.897 0 0 1-1.469-1.736c-.361-.703-.54-1.532-.54-2.49 0-.546.081-1.06.245-1.537a5.99 5.99 0 0 1 .643-1.327c.265-.405.568-.772.91-1.1a7.61 7.61 0 0 1 1.046-.848l.519-.328a8.164 8.164 0 0 1-1.1-.82 5.674 5.674 0 0 1-.938-1.066 5.12 5.12 0 0 1-.648-1.362 5.523 5.523 0 0 1-.24-1.674c0-.875.188-1.659.568-2.351a5.483 5.483 0 0 1 1.51-1.757 6.891 6.891 0 0 1 2.166-1.094 8.6 8.6 0 0 1 2.538-.376c.929 0 1.806.106 2.63.315.826.21 1.547.528 2.162.956.614.43 1.1.972 1.456 1.628.354.656.533 1.43.533 2.324 0 .528-.064 1.01-.192 1.443-.128.433-.305.83-.533 1.196-.228.364-.495.7-.8 1.004a9.996 9.996 0 0 1-.991.869l-.601.464c.456.247.874.53 1.257.848.383.319.711.688.984 1.108.275.419.488.897.643 1.435.156.538.233 1.149.233 1.832 0 .948-.192 1.784-.575 2.509a5.388 5.388 0 0 1-1.545 1.817 6.798 6.798 0 0 1-2.261 1.102 9.876 9.876 0 0 1-2.728.369M109.559 34.312h2.186v-3.063l2.735-.656h1.421v3.719h4.048v3.281h-4.048v5.578c0 .602.142 1.062.424 1.381.283.319.735.479 1.354.479.384 0 .754-.052 1.116-.158.358-.104.67-.234.936-.389h.218v3.172c-.218.11-.484.205-.793.287-.309.082-.636.15-.977.205-.342.055-.684.096-1.026.123-.342.028-.649.041-.922.041a6.5 6.5 0 0 1-1.854-.247 3.786 3.786 0 0 1-1.414-.752 3.297 3.297 0 0 1-.903-1.264c-.209-.505-.315-1.101-.315-1.784v-6.672h-2.186v-3.281M131.652 41.093c0-.437-.023-.845-.068-1.224a3.074 3.074 0 0 0-.26-.964 1.895 1.895 0 0 0-.814-.901c-.36-.201-.854-.301-1.484-.301-.492 0-.952.096-1.38.286a4.856 4.856 0 0 0-1.134.698v9.406h-4.158V26.656l2.735-.656h1.423v9.405h.218a7.468 7.468 0 0 1 1.791-.984c.592-.218 1.272-.328 2.037-.328.902 0 1.74.174 2.515.52.776.346 1.395.902 1.86 1.667.273.456.488.979.643 1.565.154.59.232 1.27.232 2.046v8.202h-4.156v-7" fill="#50ABE4"/><path d="M147.184 48.093V27.968h4.484v16.625h7.765v3.5h-12.249zM161.401 34.53l2.735-.655h1.423v14.218h-4.158V34.531zm2.188-3.718c-.71 0-1.253-.177-1.626-.533-.374-.356-.562-.843-.562-1.463 0-.592.188-1.064.562-1.416.373-.35.916-.525 1.626-.525.711 0 1.254.176 1.627.525.375.352.561.824.561 1.416 0 .62-.186 1.107-.561 1.463-.373.356-.916.533-1.627.533zM175.073 41.312c.776 0 1.37-.19 1.784-.568.415-.377.623-.955.623-1.73 0-.774-.208-1.35-.623-1.729-.414-.377-1.008-.566-1.784-.566-.774 0-1.369.189-1.782.566-.416.379-.623.955-.623 1.73 0 .774.207 1.352.623 1.729.413.379 1.008.568 1.782.568zm-1.298 7.301a.817.817 0 0 1-.204-.028l-.575.383a2.684 2.684 0 0 0-.793.807c-.2.318-.302.67-.302 1.053 0 .355.076.661.226.923.152.26.354.476.609.649.255.173.547.3.875.383.328.082.67.124 1.025.124.575 0 1.096-.066 1.565-.194.47-.128.874-.298 1.211-.517.337-.22.597-.475.779-.767.182-.29.273-.601.273-.929 0-.237-.023-.443-.068-.616a.947.947 0 0 0-.253-.444 1.303 1.303 0 0 0-.506-.295 4.557 4.557 0 0 0-.813-.177l-2.844-.328a.826.826 0 0 0-.205-.027zm.642 6.479c-.874 0-1.701-.07-2.481-.21-.779-.142-1.463-.362-2.051-.665-.588-.298-1.054-.685-1.401-1.154-.347-.47-.52-1.031-.52-1.688 0-.474.103-.908.308-1.307.205-.396.479-.743.82-1.039a4.66 4.66 0 0 1 1.183-.738 5.857 5.857 0 0 1 1.409-.416v-.055a2.327 2.327 0 0 1-.644-.8c-.155-.315-.232-.685-.232-1.115 0-.273.055-.533.164-.778.109-.247.251-.466.424-.656.173-.192.363-.354.567-.486.206-.132.404-.221.596-.266v-.192c-1.195-.302-2.131-.836-2.811-1.607-.679-.77-1.017-1.739-1.017-2.905 0-.766.152-1.454.457-2.064a4.41 4.41 0 0 1 1.292-1.552c.556-.424 1.224-.747 2.003-.971.78-.223 1.644-.335 2.59-.335.758 0 1.459.074 2.106.219.648.145 1.23.356 1.75.63l.192-.083h.328l2.735-.547h1.312v2.516h-2.597c.164.319.29.66.382 1.025.091.364.136.752.136 1.162 0 .738-.154 1.404-.464 1.996a4.466 4.466 0 0 1-1.306 1.518c-.56.419-1.231.74-2.01.964a9.31 9.31 0 0 1-2.564.335h-.628c-.073.11-.132.236-.178.383-.046.145-.068.309-.068.492 0 .328.114.56.341.697.228.136.588.232 1.081.287l3.063.328a6.361 6.361 0 0 1 1.661.382 3.84 3.84 0 0 1 1.236.76c.338.314.596.696.772 1.148.179.451.268.974.268 1.564a3.65 3.65 0 0 1-.65 2.094c-.432.637-1.023 1.188-1.77 1.653-.748.467-1.618.828-2.612 1.088-.993.259-2.05.388-3.172.388M194.98 41.093c0-.437-.023-.845-.068-1.224a3.047 3.047 0 0 0-.26-.964 1.894 1.894 0 0 0-.813-.901c-.36-.201-.855-.301-1.484-.301-.492 0-.952.096-1.38.286-.43.192-.807.424-1.135.698v9.406h-4.157V26.656l2.734-.656h1.423v9.405h.219a7.444 7.444 0 0 1 1.79-.984c.592-.218 1.272-.328 2.038-.328.902 0 1.74.174 2.516.52.774.346 1.393.902 1.858 1.667.274.456.488.979.643 1.565.155.59.233 1.27.233 2.046v8.202h-4.157v-7M201.763 34.312h2.186v-3.063l2.735-.656h1.421v3.719h4.048v3.281h-4.048v5.578c0 .602.142 1.062.426 1.381.281.319.733.479 1.352.479.382 0 .754-.052 1.114-.158.36-.104.672-.234.936-.389h.22v3.172c-.22.11-.484.205-.793.287-.311.082-.636.15-.979.205-.34.055-.682.096-1.024.123-.342.028-.649.041-.924.041-.682 0-1.3-.083-1.852-.247a3.81 3.81 0 0 1-1.416-.752 3.293 3.293 0 0 1-.901-1.264c-.211-.505-.315-1.101-.315-1.784v-6.672h-2.186v-3.281" fill="#252323"/></g><defs><clipPath id="clip0"><path fill="#fff" d="M0 0h212.153v74H0z"/></clipPath></defs></svg>