<?xml version="1.0" encoding="utf-8"?>
<!-- Generator: Adobe Illustrator 21.0.2, SVG Export Plug-In . SVG Version: 6.00 Build 0)  -->
<svg version="1.1" id="Layer_1" xmlns="http://www.w3.org/2000/svg" xmlns:xlink="http://www.w3.org/1999/xlink" x="0px" y="0px"
	 width="609px" height="146px" viewBox="0 0 609 146" style="enable-background:new 0 0 609 146;" xml:space="preserve">
<style type="text/css">
	.st0{fill:#356AE6;}
</style>
<g id="white_1_" xmlns:sketch="http://www.bohemiancoding.com/sketch/ns">
	<g id="white">
		<path class="st0" d="M433.3,49.2h-3.5v3.5c0,0.9,0.4,2,2.2,2h3.5v-3.5C435.5,50.4,435.2,49.2,433.3,49.2z"/>
		<path class="st0" d="M433,60.5h-2.8v28.9c0,1.2,0.8,2,1.9,2.1v0.1h3.2v-29C435.2,61.3,434.5,60.5,433,60.5z"/>
		<path class="st0" d="M263.6,83.1c-1.2-1.2-2.7-0.9-3.6-0.1c-3.7,3.1-7.1,4.3-11.5,4.3c-8.8,0-15.8-7.4-15.8-16.9
			s6.8-16.8,15.8-16.8c4.3,0,7.9,1.3,11.3,4.2c0.8,0.7,2.2,1,3.2-0.1c0.9-0.9,1.8-1.9,1.8-1.9l0.2-0.2l-0.2-0.2
			c-3.6-3.5-8.1-6.7-16.3-6.7c-11.9,0-21.1,9.6-21.1,21.8c0,12.3,9,21.6,21,21.6c6.7,0,11.6-2.2,16.6-7.4l0.1-0.2l-0.1-0.2
			C265,84.5,264.7,84.1,263.6,83.1z"/>
		<path class="st0" d="M339.6,59.8c-4.4,0-7.9,1.9-10.6,5.7c-1.2-2.4-4-5.9-9.8-5.9c-5,0-7.7,2.6-9.7,5.2v-2.2
			c0-1.5-0.9-2.4-2.3-2.4h-2.8v31.1h2.8c1.4,0,2.2-0.4,2.2-2.1V73.7c0-5.4,3.5-9.4,8.2-9.4c4.8,0,7.6,3.3,7.6,8.9v16
			c0,1.5,0.8,2.2,2.2,2.2h2.8V73.6c0-6.4,4.1-9.2,8.2-9.2c4.9,0,7.7,3.3,7.7,8.9v15.6c0,1.3,0.3,2.5,2.3,2.5h2.7V72.3
			C351.2,64.6,346.8,59.8,339.6,59.8z"/>
		<path class="st0" d="M375.7,59.9c-4.6,0-8.4,2-11.5,6.3V63c0-1.6-0.9-2.4-2.5-2.4h-2.5v38.2c0,1.5,0.7,2.2,2.2,2.2h2.8V86.2
			c3.1,4,6.8,6,11.5,6c7.2,0,14.8-5.7,14.8-16.2S382.9,59.9,375.7,59.9z M385.3,76c0,6.8-4.3,11.5-10.5,11.5
			c-5.3,0-10.8-4.4-10.8-11.6s5.5-11.6,10.8-11.6C380,64.4,385.3,68.4,385.3,76z"/>
		<path class="st0" d="M468.2,62.7v2.6c-2.1-2.7-5.8-5.7-11.7-5.7c-3.7,0-7.4,1.4-10.1,3.9c-2.9,2.7-4.5,6.6-4.5,10.8
			c0,9.5,7.5,14.6,14.6,14.6c4.6,0,8.5-1.9,11.8-5.9v3c0,6.8-4,10.7-10.8,10.7c-3.3,0-6.5-0.8-9.5-2.5c-0.8-0.5-1.4-0.7-1.9-0.7
			c-0.6,0-1.2,0.3-1.6,1c-0.8,1.3-1.1,1.9-1.1,1.9l-0.1,0.2l0.2,0.1c4.1,2.9,8.8,4.3,14,4.3c10,0,15.8-5.5,15.8-15.1V60.4h-2.8
			C469.6,60.4,468.2,61.2,468.2,62.7z M468.5,74.6c0,6.4-5.6,10.2-11,10.2c-5.9,0-10.3-4.4-10.3-10.2c0-5.9,4.4-10.1,10.3-10.1
			C462.8,64.4,468.5,67.9,468.5,74.6z"/>
		<path class="st0" d="M496.9,59.9c-4.4,0-7.8,1.8-10.2,5.4v-2.6c0-1.5-1.2-2.1-2.4-2.1h-2.8v31.1h5.1l-0.1-17.8
			c0-5.5,3.7-9.3,9-9.3c5.2,0,8.2,3.3,8.2,9v16c0,1.5,0.7,2.1,2,2.1h3V72.3C508.8,64.7,504.2,59.9,496.9,59.9z"/>
		<path class="st0" d="M409.3,60c-3.9,0-7.4,0.8-11.2,2.5l-0.2,0.1l0.1,0.2c0,0,0.5,1.4,0.9,2.4s1.6,1.1,2.5,0.7
			c2.6-1,4.9-1.5,7.5-1.5c5.7,0,8.8,2.9,8.8,8.1V80c0,4.7-4.2,8-10,8c-3.6,0-7.5-1.8-7.5-5.8c0-3.8,3.1-5.9,8.7-5.9h2.5
			c1.5,0,2.2-0.7,2.2-2.1v-1.7h-5.2c-8.5,0-13.3,3.6-13.3,9.8c0,4.7,3.6,9.9,11.7,9.9c4.4,0,8.1-1.7,10.8-4.9v2.1c0,1.4,0.7,2,2.2,2
			h2.8v-19C422.5,64.5,417.8,60,409.3,60z"/>
		<path class="st0" d="M283.4,60c-4.8,0-8.2,1.2-11.2,2.5l-0.2,0.2l0.1,0.2c0,0,0.5,1.4,0.9,2.4s1.6,1.1,2.5,0.7
			c2.6-1,4.9-1.5,7.5-1.5c5.7,0,8.9,2.9,8.9,8.1V80c0,4.7-4.2,8-10,8c-3.6,0-7.4-1.8-7.4-5.8c0-3.8,3.1-5.9,8.6-5.9h2.5
			c1.5,0,2.2-0.7,2.2-2.1v-1.7h-5.1c-8.5,0-13.4,3.6-13.4,9.8c0,4.7,3.6,9.9,11.6,9.9c4.4,0,8.1-1.7,10.9-4.9v2.1c0,1.4,0.7,2,2.1,2
			h2.8v-19C296.6,64.5,291.9,60,283.4,60z"/>
		<path class="st0" d="M560.2,71.6c-0.7-0.6-29.2-20.5-30.5-21.3l-0.4-0.3v4.9c0,1.6,0.8,2.1,1.8,2.9l0.2,0.1
			c1.4,1,21.7,15.1,24.4,17c-2.7,1.9-23.3,16.2-24.6,17c-1.6,1-1.7,1.7-1.7,3.1v4.7c0,0,30.3-21.1,30.9-21.6l0,0
			c1.4-1,1.7-2.3,1.7-3.1v-0.6C562,73.4,561.4,72.4,560.2,71.6z"/>
		<path class="st0" d="M542.4,77.1c0.8,0,1.6-0.3,2.4-0.9c1-0.7,1.9-1.3,1.9-1.3l0.3-0.2l-0.3-0.2c-0.1-0.1-13.4-9.3-14.8-10.2
			c-0.6-0.5-1.4-0.6-1.9-0.3c-0.5,0.3-0.9,0.8-0.9,1.6v3.1l0.1,0.1c0.1,0.1,9.2,6.4,11,7.6C541,76.9,541.7,77.1,542.4,77.1z"/>
		<path class="st0" d="M118.3,84.4c-1.1-1.1-2.5-0.4-3.1,0.1c-2.3,2.1-4.9,3.1-7.7,3.1c-6.1,0-10.9-5.1-10.9-11.7
			c0-6.5,4.7-11.6,10.6-11.6c3.4,0,5.6,1.5,7.4,2.9c1.3,1.1,2.4,1.2,3.3,0.2c0.8-0.8,1.7-1.8,1.7-1.8l0.2-0.2l-0.2-0.2
			c-3.5-3.8-7.4-5.5-12.4-5.5c-8.9,0-16,7.1-16,16.2c0,8.9,7.2,16.2,16,16.2c6.5,0,10.2-3.3,12.6-6.1h0.2l-0.2-0.2
			C119.8,85.8,119.3,85.4,118.3,84.4z"/>
		<path class="st0" d="M151.5,49.2H148v3.5c0,0.9,0.4,2,2.2,2h3.5v-3.1C153.8,50.2,152.9,49.2,151.5,49.2z"/>
		<path class="st0" d="M151.1,60.5h-2.9v28.9c0,1.2,0.8,2,1.9,2.1v0.1h3.2v-29C153.4,61.3,152.6,60.5,151.1,60.5z"/>
		<path class="st0" d="M184,62.2c-0.4,1.1-8,19.5-9.5,22.9c-1.4-3.5-9-21.9-9.4-22.9c-0.5-1.2-1.5-1.9-2.8-1.9h-3.6l0.2,0.3
			C159,61,171.1,88.9,171.6,90c0.5,1.3,1.3,1.6,2.6,1.6h0.6c1.2,0,2-0.5,2.5-1.6s12.6-28.8,12.7-29.1l0.2-0.4h-3.5
			C185.4,60.5,184.5,61,184,62.2z"/>
		<path class="st0" d="M215.3,74.2h-11.9c-1.3,0-2.1,0.8-2.1,2.1v2h0.3c5.7-0.1,12.3-0.1,15-0.1c1.6,0,2.8-0.4,3.7-1.3
			c0.8-0.9,1.2-2.3,1.1-3.9c-0.9-8-6.6-13.2-14.4-13.2c-8.5,0-15,7-15,16.2c0,9.3,6.7,16.2,15.6,16.2c5.2,0,9.1-1.8,12.8-5.8
			l0.2-0.2l-0.2-0.2c0,0-0.7-0.6-1.5-1.3c-1.2-1-2.3-0.6-2.9,0c-2.2,2-4.9,3-8.2,3c-5.7,0-9.9-4.1-10.6-10.2c0,0-0.1-0.7-0.1-1.6
			c0-1,0.1-1.7,0.1-1.7c0.6-6,4.6-10.2,9.7-10.2s8.8,3.4,9.3,8.6c0.1,0.5,0,0.9-0.1,1.1C215.8,74.1,215.6,74.2,215.3,74.2z"/>
		<path class="st0" d="M71.5,50.8L71.5,50.8c-0.6-1.2-1.3-1.6-2.6-1.6h-1.2c-1,0-1.9,0.6-2.4,1.5c-0.4,0.9-18,40.1-18.2,40.5
			l-0.2,0.4h3.3c1.4,0,2.3-0.6,3-2c0.6-1.2,3.5-7.8,4-8.9h12.9c1.6,0,2.6-1,2.6-2.5V76H59.2l9.1-20.4c1.9,4.2,14.6,33.2,15.2,34.4
			c0.8,1.6,2.7,1.6,3.3,1.6h3l-0.2-0.4C89.6,90.8,72.1,52.1,71.5,50.8z"/>
		<path class="st0" d="M140.8,87.1c-0.5-0.3-1.2-0.4-1.9-0.2c-1.1,0.3-1.9,0.5-2.9,0.5c-3.2,0-4.9-1.6-4.9-4.9V65h9.7v-2.1
			c0-1.6-1.4-2.4-2.6-2.4H131v-8.8c0-1.4-1-2.4-2.5-2.4H126v33.9c0,5.7,3.1,8.9,8.9,8.9c2.2,0,4.7-0.5,6.3-1.3l0.1-0.1v-0.1
			c0,0,0.1-0.9,0.1-2C141.5,87.8,141.1,87.4,140.8,87.1z"/>
	</g>
</g>
</svg>
