<svg width="157" height="72" fill="none" xmlns="http://www.w3.org/2000/svg"><g clip-path="url(#clip0)"><path d="M1.2 37h4.515l1.19-3.535h7.665L15.795 37h4.655l-7.175-19.53h-4.9L1.2 37zm6.79-6.895l2.73-8.225 2.765 8.225H7.99zm23.318 7.245c2.52 0 4.725-.805 6.02-2.765V37h3.5V26.99h-8.785v3.36h4.34c-.21 1.75-1.75 3.22-4.585 3.22-3.08 0-4.83-2.065-4.83-6.3 0-4.445 1.82-6.37 5.04-6.37 2.485 0 3.78 1.295 4.13 2.87h4.445c-.595-4.41-4.305-6.65-8.715-6.65-4.48 0-9.345 2.415-9.345 10.15 0 6.965 3.815 10.08 8.785 10.08zM43.774 37h4.515l1.19-3.535h7.665L58.37 37h4.655L55.85 17.47h-4.9L43.774 37zm6.79-6.895l2.73-8.225 2.765 8.225h-5.495zM66.344 37h13.125v-3.815h-8.68V17.47h-4.445V37zm16.46 0h4.236V23.245l4.375 8.54h2.45l4.375-8.54V37h4.235V17.47H97.33l-4.55 8.855-4.515-8.855h-5.46V37zm23.651 0h9.835v-2.87h-2.695V20.34h2.695v-2.87h-9.835v2.87h2.695v13.79h-2.695V37zm26.309-7.07c-.14 1.925-1.505 3.57-4.165 3.57-3.675 0-4.585-3.185-4.585-6.265 0-3.08.91-6.265 4.585-6.265 2.66 0 4.025 1.645 4.165 3.57h4.515c-.35-4.795-3.955-7.42-8.75-7.42-5.985 0-9.1 4.025-9.1 10.115s3.115 10.115 9.1 10.115c4.795 0 8.4-2.625 8.75-7.42h-4.515z" fill="#4786F1"/><path d="M7.64 67h5.04l6.755-19.53h-4.48L10.23 62.275 5.505 47.47H.885L7.64 67zm14.817 0h14v-3.745h-9.555v-4.34h7.735V55.17h-7.735v-3.955h9.555V47.47h-14V67zm18.348 0h4.27V53.245L52.355 67h5.425V47.47h-4.27v13.755L46.23 47.47h-5.425V67zm25.835 0h4.445V51.285h5.635V47.47H61.005v3.815h5.635V67zm12.623-7.385c0 5.425 3.15 7.735 8.4 7.735 5.215 0 8.4-2.31 8.4-7.735V47.47h-4.445v11.69c0 3.185-1.26 4.34-3.955 4.34-2.695 0-3.955-1.155-3.955-4.34V47.47h-4.445v12.145zM100.988 67h4.445v-6.3h2.975l4.06 6.3h5.11l-4.97-7.21c2.38-.875 4.06-2.625 4.06-5.705 0-4.55-3.36-6.615-8.855-6.615h-6.825V67zm4.445-9.94v-5.95h2.345c3.08 0 4.27.875 4.27 2.975 0 2.135-1.19 2.975-4.27 2.975h-2.345zM121.359 67h14v-3.745h-9.555v-4.34h7.735V55.17h-7.735v-3.955h9.555V47.47h-14V67zm16.81-6.02c.315 4.095 3.57 6.37 8.435 6.37 4.06 0 7.98-1.575 7.98-5.95 0-3.08-1.96-4.725-5.075-5.565l-3.92-1.05c-1.89-.525-2.52-1.225-2.52-2.24 0-1.26.98-2.03 2.8-2.03 1.855 0 3.465.805 3.605 2.835h4.48c-.315-4.235-3.535-6.23-7.805-6.23-3.85 0-7.525 1.61-7.525 5.74 0 2.87 1.785 4.655 5.04 5.53l3.92 1.05c1.82.49 2.555 1.225 2.555 2.31 0 1.33-1.19 2.205-3.29 2.205-2.135 0-3.99-.875-4.165-2.975h-4.515z" fill="#2A3851"/><path fill="#4786F1" d="M1 6h19.3v4H1z"/></g><defs><clipPath id="clip0"><path fill="#fff" transform="translate(.5)" d="M0 0h156v72H0z"/></clipPath></defs></svg>
