<svg width="256" height="64" fill="none" xmlns="http://www.w3.org/2000/svg"><g clip-path="url(#clip0)"><rect x="1" y="1" width="254" height="62" rx="11" fill="#fff" stroke="#798B96" stroke-width="2"/><path d="M70.792 24h1.32v-2.676h1.236c1.908 0 2.844-1.08 2.844-2.448 0-1.476-.96-2.436-2.916-2.436h-2.484V24zm2.532-6.42c.912 0 1.512.456 1.512 1.308 0 .84-.456 1.296-1.476 1.296h-1.248V17.58h1.212zm7.346 6.6c2.172 0 3.96-1.668 3.96-3.96s-1.8-3.96-3.96-3.96c-2.148 0-3.948 1.668-3.948 3.96s1.788 3.96 3.948 3.96zm0-1.224c-1.5 0-2.604-1.116-2.604-2.736s1.104-2.736 2.604-2.736 2.628 1.116 2.628 2.736-1.128 2.736-2.628 2.736zm5.632-6.516h-1.44l2.22 7.56h1.716l1.512-5.568L91.834 24h1.716l2.22-7.56h-1.404l-1.644 6.18-1.644-6.18H89.59l-1.644 6.18-1.644-6.18zM96.667 24h4.908v-1.164h-3.588V20.76h3.408v-1.164h-3.408v-1.992h3.588V16.44h-4.908V24zm6 0h1.32v-2.772h1.572L106.975 24h1.536l-1.644-3.048c.912-.396 1.368-1.188 1.368-2.124 0-1.44-.96-2.388-2.916-2.388h-2.652V24zm2.7-6.42c.912 0 1.512.444 1.512 1.26 0 .816-.456 1.248-1.476 1.248h-1.416V17.58h1.38zm4.226 6.42h4.908v-1.164h-3.588V20.76h3.408v-1.164h-3.408v-1.992h3.588V16.44h-4.908V24zm6 0h2.052c2.916 0 4.584-1.512 4.584-3.78s-1.668-3.78-4.584-3.78h-2.052V24zm2.208-1.188h-.888v-5.184h.888c1.86 0 3.096.864 3.096 2.592 0 1.728-1.236 2.592-3.096 2.592zM125.612 24h3.048c1.728 0 2.544-.936 2.544-2.232 0-.624-.252-1.368-1.344-1.764.744-.36 1.008-.984 1.008-1.572 0-1.164-.744-1.992-2.46-1.992h-2.796V24zm2.628-6.468c.816 0 1.272.312 1.272 1.044 0 .756-.336 1.056-1.26 1.056h-1.32v-2.1h1.308zm.24 3.156c.948 0 1.368.372 1.368 1.116 0 .732-.408 1.104-1.356 1.104h-1.56v-2.22h1.548zM134.023 24h1.32v-3.132l2.64-4.428h-1.464l-1.836 3.168-1.812-3.168h-1.524l2.676 4.5V24z" fill="#798B96"/><path d="M71.08 48h3.72v-5.952h5.904V48h3.72V32.88h-3.72v5.928H74.8V32.88h-3.72V48zm15.012-5.28c0 3.624 2.088 5.64 4.56 5.64 1.416 0 2.688-.576 3.456-1.752V48h3.696V37.44h-3.696v1.392c-.768-1.176-2.04-1.752-3.456-1.752-2.472 0-4.56 2.016-4.56 5.64zm5.88-2.64c1.32 0 2.184.96 2.184 2.64 0 1.68-.888 2.64-2.184 2.64-1.392 0-2.184-1.128-2.184-2.64 0-1.512.792-2.64 2.184-2.64zm11.127 2.64c0-1.848.912-2.76 2.016-2.76.864 0 1.656.552 1.752 1.728h3.792c-.504-3.48-3.288-4.608-5.544-4.608-2.832 0-5.712 1.752-5.712 5.64s2.88 5.64 5.712 5.64c2.28 0 5.064-1.128 5.544-4.608h-3.792c-.12 1.152-.888 1.728-1.752 1.728-1.104 0-2.016-.912-2.016-2.76zm9.067 5.28h3.696v-4.56l3.432 4.56h4.512l-4.464-5.568 4.128-4.992h-4.032l-3.576 4.152V31.68h-3.696V48zm28.088-5.952C139.75 44.52 138.142 45 136.702 45c-2.256 0-3.792-1.92-3.792-4.56 0-2.64 1.512-4.56 3.792-4.56 1.512 0 3.048.624 3.504 2.952h3.816c-.936-4.968-4.08-6.312-7.32-6.312-4.536 0-7.512 3.336-7.512 7.92s3.12 7.92 7.512 7.92c3.24 0 6.36-1.2 7.32-6.312h-3.768zM145.611 48h3.696V31.68h-3.696V48zm9.388-10.56h-3.696v6.72c0 2.688 1.512 4.2 3.768 4.2 1.152 0 2.28-.576 2.976-1.728V48h3.696V37.44h-3.696v5.352c0 1.704-.672 2.448-1.536 2.448-.912 0-1.512-.696-1.512-2.136V37.44zm20.606 5.28c0-3.624-2.088-5.64-4.56-5.64-1.416 0-2.688.576-3.456 1.752V31.68h-3.696V48h3.696v-1.392c.768 1.176 2.04 1.752 3.456 1.752 2.472 0 4.56-2.016 4.56-5.64zm-5.88-2.64c1.392 0 2.184 1.128 2.184 2.64 0 1.512-.792 2.64-2.184 2.64-1.296 0-2.184-.984-2.184-2.64 0-1.656.864-2.64 2.184-2.64zM182.057 48h6.504c3.648 0 5.4-1.896 5.4-4.536 0-1.2-.504-2.664-2.904-3.384 1.704-.696 2.304-1.968 2.304-3.192 0-2.184-1.44-4.008-5.256-4.008h-6.048V48zm5.664-12.36c1.2 0 1.896.48 1.896 1.608 0 1.248-.6 1.752-2.04 1.752h-1.8v-3.36h1.944zm.408 6c1.32 0 2.088.6 2.088 1.824 0 1.176-.792 1.776-2.136 1.776h-2.304v-3.6h2.352zm7.017 1.08c0 3.624 2.088 5.64 4.56 5.64 1.416 0 2.688-.576 3.456-1.752V48h3.696V37.44h-3.696v1.392c-.768-1.176-2.04-1.752-3.456-1.752-2.472 0-4.56 2.016-4.56 5.64zm5.88-2.64c1.32 0 2.184.96 2.184 2.64 0 1.68-.888 2.64-2.184 2.64-1.392 0-2.184-1.128-2.184-2.64 0-1.512.792-2.64 2.184-2.64zM209.01 48h3.696v-5.784c0-1.488.696-2.136 1.824-2.136 1.032 0 1.584.696 1.584 2.136V48h3.696v-6.144c0-3-1.536-4.776-4.008-4.776-1.344 0-2.424.624-3.096 1.752V37.44h-3.696V48zm12.797 0h3.696v-4.56l3.432 4.56h4.512l-4.464-5.568 4.128-4.992h-4.032l-3.576 4.152V31.68h-3.696V48z" fill="#17171D"/><circle cx="36" cy="32" r="22.5" stroke="#E42D42" stroke-width="3"/><path d="M22.5 44a1.5 1.5 0 0 1 1.5-1.5h24a1.5 1.5 0 0 1 0 3H24a1.5 1.5 0 0 1-1.5-1.5z" fill="#E42D42"/><path fill-rule="evenodd" clip-rule="evenodd" d="M36 41a1.5 1.5 0 0 1-1.5-1.5V29a1.5 1.5 0 0 1 3 0v10.5A1.5 1.5 0 0 1 36 41zm7.5 0a1.5 1.5 0 0 1-1.5-1.5V29a1.5 1.5 0 0 1 3 0v10.5a1.5 1.5 0 0 1-1.5 1.5zm-15 0a1.5 1.5 0 0 1-1.5-1.5V29a1.5 1.5 0 0 1 3 0v10.5a1.5 1.5 0 0 1-1.5 1.5z" fill="#E42D42"/><path d="M36 20.027c.062.021.156.057.291.117.359.155.785.377 1.332.69 1.113.636 2.507 1.535 4.074 2.642C44.85 25.698 45 26 48.44 28.56a1.498 1.498 0 0 0 2.12 0 1.498 1.498 0 0 0 0-2.122c-3.31-2.689-3.908-3.137-7.132-5.415-1.62-1.143-3.133-2.119-4.317-2.796a18.064 18.064 0 0 0-1.615-.832C37.103 17.224 36.537 17 36 17s-1.102.224-1.495.396c-.446.195-1.014.489-1.616.832-1.183.677-2.697 1.653-4.317 2.796-3.223 2.277-3.821 2.726-7.132 5.415a1.498 1.498 0 0 0 0 2.122 1.498 1.498 0 0 0 2.12 0C27 26 27.153 25.698 30.304 23.476c1.568-1.107 2.961-2.006 4.074-2.642.548-.314.974-.535 1.332-.69.135-.06.23-.096.291-.117z" fill="#E42D42"/></g><defs><clipPath id="clip0"><path fill="#fff" d="M0 0h256v64H0z"/></clipPath></defs></svg>