<svg enable-background="new 0 0 183.9 33.4" viewBox="0 0 183.9 33.4" xmlns="http://www.w3.org/2000/svg"><g fill="#192a57"><path d="m16.5 26.1-8.3-26.1h-8.2v33.4h5.3v-26.7l8.3 26.7h8.1v-33.4h-5.2z"/><path d="m80.2 23.9-4.4-23.9h-5.6l-4.4 23.9-3.8-23.9h-5.7l6.5 33.4h5.5l4.7-24.2 4.7 24.2h5.6l6.4-33.4h-5.6z"/><path d="m178.3 0-3.8 23.9-4.5-23.9h-5.5l-4.5 23.9-3.8-23.9h-5.6l6.4 33.4h5.6l4.7-24.2 4.7 24.2h5.5l6.4-33.4z"/><path d="m98.1 0v33.3h5.6v-13.9h9.9l5.6-9.7-5.7-9.7zm9.8 14.5c-2.7 0-4.8-2.2-4.8-4.8 0-2.7 2.2-4.8 4.8-4.8s4.8 2.2 4.8 4.8c0 2.7-2.1 4.8-4.8 4.8z"/><path d="m129.3 0-5.6 9.7 5.6 9.7h11.2l5.6-9.7-5.6-9.7zm5.6 14.5c-2.7 0-4.8-2.2-4.8-4.8 0-2.7 2.2-4.8 4.8-4.8 2.7 0 4.8 2.2 4.8 4.8 0 2.7-2.1 4.8-4.8 4.8z"/><path d="m35 13.9-5.6 9.7 5.6 9.7h11.2l5.6-9.7-5.6-9.7zm5.6 14.5c-2.7 0-4.8-2.2-4.8-4.8s2.2-4.8 4.8-4.8c2.7 0 4.8 2.2 4.8 4.8s-2.1 4.8-4.8 4.8z"/><path d="m31.4 0h18.6v5.5h-18.6z"/><path d="m125.6 27.8h18.6v5.5h-18.6z"/></g></svg>