<svg id="Layer_1" data-name="Layer 1" xmlns="http://www.w3.org/2000/svg" viewBox="0 0 570.46 279.44"><defs><style>.cls-3{fill:#231f20}</style></defs><path d="M344.18 222.92a1.73 1.73 0 0 0 1.25-3c-21.91-19.83-91.17-78.36-145.58-78.36-60.5 0-82.11 48.42-89 71.72a1.75 1.75 0 0 0 1.75 2.2 1.8 1.8 0 0 0 1.72-1.18c3.29-9.45 23.57-50.13 74.22-54.32 58.24-4.82 132.71 48.59 153 62.62a1.86 1.86 0 0 0 1.05.32z" transform="translate(-110.77 -141.56)" fill="#f58220"/><path d="M450.16 336.21a1.83 1.83 0 0 0-1.2 3.13C470 360 536.66 421 589 421c58.2 0 81.55-50.46 88.18-74.73a1.79 1.79 0 0 0-1.68-2.3 1.74 1.74 0 0 0-1.65 1.23c-3.17 9.84-25.24 52.24-74 56.61-56 5-127.65-50.64-147.17-65.26a1.71 1.71 0 0 0-1-.34z" transform="translate(-110.77 -141.56)" fill="#da1a32"/><path class="cls-3" d="M120.82 356.41l22.23-106.33h12.08l-2.24 10.72q6.74-7 12.05-9.74a24.44 24.44 0 0 1 11.26-2.71 23.56 23.56 0 0 1 18.24 8q7.23 8 7.24 22.91a58 58 0 0 1-4 21.9 49 49 0 0 1-9.76 15.84 41.25 41.25 0 0 1-11.72 8.83 28.06 28.06 0 0 1-12.2 2.86q-13.83 0-21.43-14l-8.68 41.76zm25.92-60.87q0 8.61 1.23 11.94A16.25 16.25 0 0 0 163.46 318q11.29 0 18.24-12.71a53.45 53.45 0 0 0 7-25.94q0-9.78-4.67-15.1a14.86 14.86 0 0 0-11.62-5.32 17.18 17.18 0 0 0-9.26 2.65 27.66 27.66 0 0 0-7.93 7.88 47 47 0 0 0-6 12.85 44.88 44.88 0 0 0-2.48 13.23zM273 283.17l-8.56 43.74h-12.6l2.2-11.36a34.52 34.52 0 0 1-11.64 9.89 30.59 30.59 0 0 1-14.24 3.46q-10.47 0-16.73-5.72T205.11 308a25.63 25.63 0 0 1 10.58-21.46q10.58-8 28.64-8h16.84l.82-4.18a12.18 12.18 0 0 0 .21-1.3c0-.45.07-1.09.07-1.91a10.35 10.35 0 0 0-4.27-8.95q-4.32-3.12-12.33-3.12a51 51 0 0 0-12.69 1.75 85.81 85.81 0 0 0-14.41 5.23l2.39-12.32a98.81 98.81 0 0 1 14-4 64.56 64.56 0 0 1 12.73-1.34q12.74 0 19.81 5.62t7.09 15.53a53.39 53.39 0 0 1-.41 5.75q-.42 3.57-1.18 7.87zm-25.4 5.21a104.07 104.07 0 0 0-12.11.51 26.4 26.4 0 0 0-6.92 1.75 15.79 15.79 0 0 0-7.46 6.05 16.28 16.28 0 0 0-2.8 9.21 12 12 0 0 0 3.52 9.07q3.53 3.39 9.55 3.39a24.07 24.07 0 0 0 17.49-7.26q7.35-7.26 10-19.92l.54-2.8zM270.64 356.63l.8-12.31a28.34 28.34 0 0 0 7.89 1.16 10.59 10.59 0 0 0 6.44-1.81q3.18-2.39 7-9l4.2-7.53-12.81-77.09H297l5.78 38.95q1.74 11.52 3 23l34.38-61.89h13.68l-49 87.08q-7.1 12.73-12.6 16.86a20.53 20.53 0 0 1-12.66 4.13 26.91 26.91 0 0 1-8.94-1.55zM345.86 327l24.23-116.1h13.1L359 327zM452.82 280.53c0 23.61-16.79 48.17-42.45 48.17-19.17 0-29.95-14.26-29.95-31.53 0-25.19 17.59-48.64 42.46-48.64 20.75 0 29.94 15.69 29.94 32zm-58.77 16.16c0 12.52 6.81 21.55 18.06 21.55 15.53 0 27.25-20 27.25-37.86 0-8.87-4.12-21.39-17.9-21.39-16.46.01-27.57 20.12-27.41 37.7zM515.64 323.44A45.78 45.78 0 0 1 505 327.5a49.59 49.59 0 0 1-11.84 1.4q-15.3 0-23.14-7.68t-7.85-22.7a56.64 56.64 0 0 1 3.65-20 49 49 0 0 1 9.86-16.48 42.77 42.77 0 0 1 14-10.11 41 41 0 0 1 16.68-3.34 46.59 46.59 0 0 1 11.64 1.5 48.69 48.69 0 0 1 11.06 4.4l-2.53 12.42a31.11 31.11 0 0 0-9.28-5.8 29.2 29.2 0 0 0-10.58-1.84 28.37 28.37 0 0 0-13.32 3 27.2 27.2 0 0 0-9.89 9.12 45.86 45.86 0 0 0-6 12.8 49.91 49.91 0 0 0-2.15 14.3q0 9.83 4.68 14.78t14 4.95a37.78 37.78 0 0 0 12.59-2.12 42.91 42.91 0 0 0 11.71-6.41zM529 327l16-76.92h13.1L542.05 327zm19.11-91.27l3.11-14.84h13l-3.11 14.84zM667.55 250.08L633.17 312q-1.23-11.5-3-23l-5.79-38.87h-31.72l5.86-27.94-15 9.05-4 18.89h-10.31l-2.1 10.14h10.35l-9.34 44.66q-1.89 9.12-1.88 11.65a9.71 9.71 0 0 0 3.47 7.89q4.63 3.84 12.45 3.84a36 36 0 0 0 9.12-1.23l2.17-10.72a31.35 31.35 0 0 1-7.74.87q-3 0-4.38-1.23a4.58 4.58 0 0 1-1.33-3.6 78.11 78.11 0 0 1 1.67-9.7l8.9-42.48h22.65l11.13 66.95-4.2 7.53q-3.76 6.58-6.95 9a10.59 10.59 0 0 1-6.44 1.81 28.34 28.34 0 0 1-7.89-1.16l-.8 12.31a26.85 26.85 0 0 0 8.9 1.52 20.56 20.56 0 0 0 12.66-4.18q5.5-4.12 12.6-16.86l49-87.08z" transform="translate(-110.77 -141.56)"/></svg>