<svg width="142" height="32" fill="none" xmlns="http://www.w3.org/2000/svg"><path d="M7.065 16.076c0-3.8 2.076-5.153 4.017-5.153 2.383 0 3.983 2.056 3.983 5.118 0 3.493-2.036 5.053-4.05 5.053-2.716 0-3.95-2.604-3.95-5.018zm4.974-9.625c-2.833 0-4.473 1.275-5.264 2.155-.095-.759-.594-1.743-2.542-1.743H0V11.3h1.735c.294 0 .389.093.389.388v20.256h5.044V24.34c0-.204-.004-.396-.01-.568.788.723 2.294 1.722 4.644 1.722 4.931 0 8.38-3.914 8.38-9.52 0-5.696-3.274-9.523-8.143-9.523z" fill="#000"/><path d="M26.956 20.294V9.56c0-1.814-.873-2.697-2.662-2.697h-4.508v4.436h1.737c.292 0 .387.095.387.388v10.696c0 1.842.845 2.697 2.656 2.697h4.514v-4.396h-1.737c-.28 0-.387-.112-.387-.39z" fill="#000"/><path d="M39.105 21.094c-2.708 0-3.948-2.604-3.948-5.018 0-3.8 2.076-5.153 4.019-5.153 2.382 0 3.983 2.056 3.983 5.118 0 3.493-2.035 5.053-4.054 5.053zm1.03-14.643c-2.837 0-4.473 1.275-5.268 2.155-.093-.759-.59-1.743-2.539-1.743h-4.234V11.3h1.734c.293 0 .387.093.387.388v20.256h5.048V24.34c0-.204-.005-.396-.01-.568.783.723 2.294 1.722 4.643 1.722 4.932 0 8.378-3.914 8.378-9.52 0-5.696-3.272-9.523-8.14-9.523zM53.961 13.344c.548-1.787 1.916-2.8 3.807-2.8 1.518 0 2.687 1.156 2.894 2.8h-6.7zm3.807-6.892c-5.435 0-9.236 3.916-9.236 9.522 0 5.515 4.1 9.52 9.751 9.52 4.445 0 7.16-2.635 7.276-2.747l.203-.2-2.198-3.652-.326.31c-.022.016-2.016 1.856-4.65 1.856-2.527 0-4.377-1.545-4.815-3.968h11.963l.028-.332c.01-.045.108-1.12.108-1.646 0-5.181-3.258-8.663-8.104-8.663zM75.223 21.094c-2.399 0-3.951-2.011-3.951-5.12 0-3.023 1.615-5.051 4.02-5.051 2.727 0 3.95 2.518 3.95 5.017 0 3.802-2.077 5.154-4.019 5.154zm8.996-.8V2.701c0-1.813-.884-2.697-2.697-2.697h-4.508v4.438h1.737c.292 0 .387.093.387.388v3.18c-.745-.673-2.199-1.559-4.702-1.559-4.895 0-8.31 3.916-8.31 9.523 0 5.696 3.271 9.52 8.14 9.52 2.783 0 4.388-1.293 5.171-2.195.103.786.61 1.782 2.498 1.782h4.37v-4.397h-1.699c-.28 0-.387-.112-.387-.39zM97.53 6.623c-2.099 0-4.03 1.213-5.177 3.146v-.416c0-1.651-.91-2.49-2.697-2.49h-4.337v4.436h1.734c.293 0 .39.093.39.388V25.08h5.044v-7.29c0-.96.122-1.884.36-2.74.76-2.514 2.778-3.408 4.41-3.408.579 0 1 .061 1.007.063l.42.064V6.747l-.306-.052a5.757 5.757 0 0 0-.847-.072zM105.865 20.294V9.56c0-1.814-.869-2.697-2.658-2.697h-4.078v4.436h1.303c.294 0 .387.095.387.388v10.696c0 1.842.847 2.697 2.661 2.697h4.51v-4.396h-1.738c-.279 0-.387-.112-.387-.39z" fill="#000"/><path d="M124.909 6.863h-2.692c-1.572 0-2.416.547-2.914 1.887l-3.289 9.198c-.114.34-.22.723-.311 1.09a12.383 12.383 0 0 0-.333-1.096l-3.289-9.194c-.505-1.355-1.32-1.885-2.913-1.885h-2.863V11.3h.743c.394 0 .521.135.614.38l5.091 13.402h5.673l5.091-13.401c.093-.246.223-.38.617-.38h.775V6.862zM129.789 13.344c.553-1.787 1.916-2.8 3.805-2.8 1.522 0 2.69 1.156 2.896 2.8h-6.701zm3.805-6.892c-5.433 0-9.232 3.916-9.232 9.522 0 5.515 4.097 9.52 9.748 9.52 4.446 0 7.164-2.635 7.277-2.747l.205-.2-2.193-3.652-.335.31c-.016.016-2.021 1.856-4.646 1.856-2.529 0-4.379-1.545-4.817-3.968h11.967l.028-.332c.005-.045.108-1.12.108-1.646 0-5.181-3.26-8.663-8.11-8.663zM26.61.006h-4.496v4.743h4.497V.006zM105.522.006h-4.499v4.743h4.499V.006z" fill="#000"/></svg>