<svg width="820" height="304" xmlns="http://www.w3.org/2000/svg" xmlns:xlink="http://www.w3.org/1999/xlink"><defs><path id="a" d="M0 304h820V0H0z"/><path d="M33.3 46.362c0 11.465 5.816 23.833 18.615 23.833 9.492 0 19.09-7.41 19.09-24.001 0-14.546-7.545-24.311-18.774-24.311-9.15 0-18.93 6.427-18.93 24.48zM56.74.644c22.949 0 38.38 18.176 38.38 45.231 0 26.63-16.256 45.223-39.494 45.223-11.08 0-18.176-4.746-21.887-8.18.026.814.044 1.726.044 2.7v36.112H10.009V25.513c0-1.4-.447-1.842-1.833-1.842H0V2.601h19.949c9.184 0 11.535 4.674 11.983 8.277C35.66 6.7 43.389.644 56.74.644z" id="c"/><path d="M34.046 64.396c0 1.32.509 1.85 1.825 1.85h8.184v20.885H22.783c-8.535 0-12.518-4.063-12.518-12.81V23.51c0-1.39-.447-1.84-1.825-1.84H.255V.598h21.247c8.43 0 12.544 4.197 12.544 12.811v50.986z" id="e"/><path d="M52.306 70.195c9.518 0 19.106-7.41 19.106-24.001 0-14.546-7.544-24.311-18.773-24.311-9.158 0-18.94 6.427-18.94 24.48 0 11.464 5.843 23.832 18.607 23.832zM57.156.644c22.94 0 38.363 18.176 38.363 45.231 0 26.63-16.238 45.223-39.485 45.223-11.07 0-18.194-4.746-21.887-8.18.026.814.052 1.726.052 2.7v36.112H10.41V25.513c0-1.4-.448-1.842-1.825-1.842H.408V2.601h19.957c9.185 0 11.527 4.674 11.966 8.277C36.077 6.7 43.788.644 57.157.644z" id="g"/><path d="M26.326 33.386h31.58c-.973-7.809-6.482-13.307-13.64-13.307-8.914 0-15.361 4.817-17.94 13.307zM44.266.646c22.843 0 38.194 16.538 38.194 41.15 0 2.497-.464 7.605-.508 7.818l-.132 1.576H25.44C27.5 62.7 36.22 70.038 48.134 70.038c12.413 0 21.808-8.738 21.913-8.817l1.536-1.47 10.36 17.343-.956.957c-.544.53-13.343 13.05-34.292 13.05C20.062 91.1.736 72.074.736 45.877.736 19.248 18.65.646 44.266.646z" id="i"/><path d="M43.535 100.195c9.15 0 18.94-6.418 18.94-24.48 0-11.871-5.764-23.832-18.615-23.832-11.334 0-18.949 9.632-18.949 23.992 0 14.767 7.316 24.32 18.624 24.32zm42.397-3.798c0 1.32.51 1.85 1.825 1.85h8.01v20.885H75.167c-8.895 0-11.29-4.727-11.772-8.463-3.693 4.285-11.255 10.429-24.37 10.429-22.949 0-38.37-18.167-38.37-45.223 0-26.63 16.097-45.231 39.168-45.231 11.8 0 18.65 4.205 22.16 7.401V22.941c0-1.398-.448-1.841-1.825-1.841h-8.185V.02h21.247c8.544 0 12.711 4.197 12.711 12.811v83.566z" id="k"/><path d="M57.672.457c1.904 0 3.921.328 3.991.346l1.448.248V24.9l-1.983-.3c-.035-.01-2.017-.302-4.746-.302-7.693 0-17.202 4.25-20.782 16.193-1.122 4.064-1.701 8.455-1.701 13.014v34.625H10.125v-63.62c0-1.398-.456-1.84-1.833-1.84H.116V1.598h20.44c8.421 0 12.711 3.984 12.711 11.828v1.975C38.671 6.22 47.777.457 57.672.457z" id="m"/><path d="M31.951 64.396c0 1.32.51 1.85 1.825 1.85h8.194v20.885H20.714c-8.553 0-12.545-4.063-12.545-12.81V23.51c0-1.39-.438-1.84-1.824-1.84H.204V.598h19.22c8.43 0 12.527 4.197 12.527 12.811v50.986z" id="o"/><path d="M87.708.601H75.023c-7.413 0-11.387 2.594-13.738 8.96l-15.5 43.69c-.536 1.62-1.036 3.436-1.466 5.18-.447-1.744-.982-3.586-1.57-5.206L27.248 9.552C24.87 3.116 21.028.602 13.519.602H.027v21.07h3.5c1.86 0 2.457.637 2.895 1.806l23.993 63.655h26.738l23.993-63.655c.439-1.169 1.053-1.806 2.912-1.806h3.65V.602z" id="q"/><path d="M25.71 33.386h31.582c-.974-7.809-6.474-13.307-13.65-13.307-8.904 0-15.326 4.817-17.931 13.307zM43.643.646c22.86 0 38.221 16.538 38.221 41.15 0 2.497-.482 7.605-.509 7.818l-.131 1.576H24.825c2.061 11.51 10.781 18.848 22.703 18.848 12.369 0 21.817-8.738 21.896-8.817l1.579-1.47 10.334 17.343-.965.957c-.535.53-13.343 13.05-34.3 13.05C19.438 91.1.13 72.074.13 45.877.13 19.248 18.035.646 43.642.646z" id="s"/><path id="u" d="M21.42.026H.225v22.532H21.42z"/><path id="w" d="M21.337.026H.134v22.532h21.203z"/></defs><g fill="none" fill-rule="evenodd"><mask id="b" fill="#fff"><use xlink:href="#a"/></mask><path fill="#FFF" mask="url(#b)" d="M-5 310.255h830V-5H-5z"/><g transform="translate(76 106)"><mask id="d" fill="#fff"><use xlink:href="#c"/></mask><path fill="#26292C" mask="url(#d)" d="M-5 126.73h105.12V-4.356H-5z"/></g><g transform="translate(169 108)"><mask id="f" fill="#fff"><use xlink:href="#e"/></mask><path fill="#26292C" mask="url(#f)" d="M-4.745 92.131h53.8V-4.4h-53.8z"/></g><g transform="translate(208 106)"><mask id="h" fill="#fff"><use xlink:href="#g"/></mask><path fill="#26292C" mask="url(#h)" d="M-4.592 126.73h105.11V-4.356H-4.591z"/></g><g transform="translate(304 106)"><mask id="j" fill="#fff"><use xlink:href="#i"/></mask><path fill="#26292C" mask="url(#j)" d="M-4.264 96.1H87.46V-4.354H-4.264z"/></g><g transform="translate(387 76)"><mask id="l" fill="#fff"><use xlink:href="#k"/></mask><path fill="#26292C" mask="url(#l)" d="M-4.345 126.098h105.111V-4.98H-4.344z"/></g><g transform="translate(478 107)"><mask id="n" fill="#fff"><use xlink:href="#m"/></mask><path fill="#26292C" mask="url(#n)" d="M-4.884 93.131H68.11V-4.543H-4.884z"/></g><g transform="translate(543 108)"><mask id="p" fill="#fff"><use xlink:href="#o"/></mask><path fill="#26292C" mask="url(#p)" d="M-4.796 92.131H46.97V-4.4H-4.796z"/></g><g transform="translate(577 108)"><mask id="r" fill="#fff"><use xlink:href="#q"/></mask><path fill="#26292C" mask="url(#r)" d="M-4.973 92.133h97.68V-4.399h-97.68z"/></g><g transform="translate(662 106)"><mask id="t" fill="#fff"><use xlink:href="#s"/></mask><path fill="#26292C" mask="url(#t)" d="M-4.87 96.1h91.733V-4.354H-4.87z"/></g><g transform="translate(180 76)"><mask id="v" fill="#fff"><use xlink:href="#u"/></mask><path fill="#26292C" mask="url(#v)" d="M-4.774 27.558H26.42V-4.973H-4.775z"/></g><g transform="translate(552 76)"><mask id="x" fill="#fff"><use xlink:href="#w"/></mask><path fill="#26292C" mask="url(#x)" d="M-4.867 27.558h31.204V-4.973H-4.866z"/></g></g></svg>