<svg xmlns="http://www.w3.org/2000/svg" viewBox="0 0 865.84 156.46" fill="#2d2e83"><path d="M338.57 100.61a38.19 38.19 0 0 0 10 8.61 24.7 24.7 0 0 0 13.06 3.5 19.52 19.52 0 0 0 6.25-1 15.61 15.61 0 0 0 5.25-2.89 14.91 14.91 0 0 0 3.57-4.44 12.15 12.15 0 0 0 1.35-5.79 11.73 11.73 0 0 0-3.3-8.68 31 31 0 0 0-8.21-5.72q-4.92-2.42-10.57-4.57a53.64 53.64 0 0 1-10.36-5.25 30.89 30.89 0 0 1-8.55-8.38 21.37 21.37 0 0 1-3.43-12.38 22.54 22.54 0 0 1 2.15-9.62 25.05 25.05 0 0 1 6-8 28.33 28.33 0 0 1 9-5.38 32.06 32.06 0 0 1 11.3-2 37.21 37.21 0 0 1 8.28.87 38.21 38.21 0 0 1 7 2.29 40.18 40.18 0 0 1 5.65 3 41.88 41.88 0 0 1 4.38 3.22l-7.94 9.82a25.6 25.6 0 0 0-16.83-6.46 20.12 20.12 0 0 0-5.72.81 16.2 16.2 0 0 0-5 2.42 12.52 12.52 0 0 0-3.56 4 10.75 10.75 0 0 0-1.26 5.41 9.53 9.53 0 0 0 3.3 7.41 34.57 34.57 0 0 0 8.21 5.31q4.91 2.35 10.5 4.65a61.78 61.78 0 0 1 10.16 5.24 34.75 34.75 0 0 1 4.57 3.64 26.28 26.28 0 0 1 3.91 4.64 22.64 22.64 0 0 1 2.75 5.92 24.64 24.64 0 0 1 1 7.34 27 27 0 0 1-2.28 11.24A26.29 26.29 0 0 1 383 118a27.77 27.77 0 0 1-9.22 5.52 33.24 33.24 0 0 1-11.51 2 41.8 41.8 0 0 1-18.17-4 43.1 43.1 0 0 1-14.81-11.71zm77.51-34.18a36 36 0 0 1 7.34-4.58 25.32 25.32 0 0 1 11.24-2.29 28.32 28.32 0 0 1 13 3 29.78 29.78 0 0 1 10 8.14 26.92 26.92 0 0 1 4.64 9.09 48.08 48.08 0 0 1 1.57 13.45v31h-12.79v-31.7a33 33 0 0 0-1-9.29 16.08 16.08 0 0 0-2.76-5.38 16.88 16.88 0 0 0-5.72-4.51 16.53 16.53 0 0 0-7.34-1.69 20.35 20.35 0 0 0-10.83 2.76 28.25 28.25 0 0 0-7.34 6.26v43.47h-12.78V28.61h12.77zm57.59 26.11a34 34 0 0 1 2.48-13.06A32.16 32.16 0 0 1 483 69a31.18 31.18 0 0 1 10.36-6.93 35.08 35.08 0 0 1 26 0A31.28 31.28 0 0 1 529.74 69a32.3 32.3 0 0 1 6.86 10.5 35.65 35.65 0 0 1 0 26.18 32.43 32.43 0 0 1-6.86 10.43 31.28 31.28 0 0 1-10.36 6.89 35.08 35.08 0 0 1-26 0 31 31 0 0 1-10.38-6.91 32.46 32.46 0 0 1-6.87-10.43 33.92 33.92 0 0 1-2.46-13.12zm12.78 0a22.22 22.22 0 0 0 1.48 8.14 20.4 20.4 0 0 0 4.15 6.66 19 19 0 0 0 6.25 4.44 21 21 0 0 0 16.16 0 19 19 0 0 0 6.25-4.44 20.68 20.68 0 0 0 4.11-6.66 23.19 23.19 0 0 0 0-16.29 20.68 20.68 0 0 0-4.11-6.66 19 19 0 0 0-6.25-4.44 21 21 0 0 0-16.16 0 19 19 0 0 0-6.25 4.44 20.68 20.68 0 0 0-4.08 6.66 22.49 22.49 0 0 0-1.52 8.15zm110.43-31.63l17.36 43.2 17.36-43.2h13.19l-25.71 63.25h-8.88l-17.76-44.41-17.77 44.41h-8.88l-25.71-63.25h13.19l17.36 43.2L588 60.91zm70.2 95.55h-12.8V60.91h12.38v5.79a27.27 27.27 0 0 1 9.34-5.46 32.73 32.73 0 0 1 10.43-1.68 31.37 31.37 0 0 1 8.35 1.08 29.79 29.79 0 0 1 7.13 3 33.63 33.63 0 0 1 .16 57.7 30.9 30.9 0 0 1-7.4 3 32 32 0 0 1-8.48 1.14 28.25 28.25 0 0 1-19.12-6.83zm0-52.08A22.49 22.49 0 0 0 675 111a20.94 20.94 0 0 0 17.9.67 21.74 21.74 0 0 0 6.67-4.5 20 20 0 0 0 4.37-6.6 21 21 0 0 0 1.55-8.07 21.78 21.78 0 0 0-5.59-14.61 19 19 0 0 0-6.39-4.57 20.27 20.27 0 0 0-8.34-1.69 21.33 21.33 0 0 0-10.46 2.57 23.87 23.87 0 0 0-7.6 6.46zm111.78 14a27.13 27.13 0 0 1-8.88 5.31 30.82 30.82 0 0 1-10.63 1.82 32 32 0 0 1-8.48-1.14 30.9 30.9 0 0 1-7.4-3 33 33 0 0 1-11.71-11.78 34.71 34.71 0 0 1 .06-34.12 33.49 33.49 0 0 1 11.78-11.84 29.79 29.79 0 0 1 7.13-3 31.36 31.36 0 0 1 8.35-1.07 32.73 32.73 0 0 1 10.43 1.68 27.27 27.27 0 0 1 9.35 5.46v-5.79h12.38v63.25h-12.38zm-.4-37.69a23.91 23.91 0 0 0-7.61-6.46 21.31 21.31 0 0 0-10.43-2.56 20.27 20.27 0 0 0-8.34 1.69 18.74 18.74 0 0 0-6.39 4.57 21.71 21.71 0 0 0-5.61 14.61 21 21 0 0 0 1.55 8.07 20 20 0 0 0 4.37 6.6 21.7 21.7 0 0 0 6.66 4.5 21 21 0 0 0 17.9-.67 22.43 22.43 0 0 0 7.88-6.66zm75 37.69a27.13 27.13 0 0 1-8.88 5.31 30.84 30.84 0 0 1-10.64 1.82 31.91 31.91 0 0 1-8.47-1.14 31 31 0 0 1-7.41-3 33.1 33.1 0 0 1-11.7-11.78 34.71 34.71 0 0 1 .06-34.12 33.49 33.49 0 0 1 11.78-11.84 29.79 29.79 0 0 1 7.13-3 31.92 31.92 0 0 1 18.44.6 29.93 29.93 0 0 1 9.29 5.19V28.61h12.78v95.55h-12.38zm-.4-37.69a23.91 23.91 0 0 0-7.61-6.46A21.31 21.31 0 0 0 835 71.67a20.27 20.27 0 0 0-8.34 1.69 19 19 0 0 0-6.4 4.57 21.82 21.82 0 0 0-5.58 14.61 21 21 0 0 0 1.55 8.07 20 20 0 0 0 4.37 6.6 21.7 21.7 0 0 0 6.66 4.5 21 21 0 0 0 17.9-.67 22.43 22.43 0 0 0 7.88-6.66z"/><path d="M271.31 76.06c0-1 0-2.09-.08-3.13v-.48c-.05-.89-.12-1.79-.21-2.68v-.11a62 62 0 0 0-55.17-55.17h-.12c-.88-.09-1.78-.16-2.68-.21h-.47c-1 0-2.09-.08-3.13-.08a61.56 61.56 0 0 0-43.79 18.14l-21 20.9 15.3 15.29 15.21-15.23-.09-.06 5.72-5.72a40.11 40.11 0 0 1 28.58-11.82h2.31a17 17 0 0 1 1.75.14h.08a40.46 40.46 0 0 1 36 36V72c.06.58.1 1.16.14 1.74V74c0 .67.05 1.35.05 2 0 .69 0 1.37-.05 2.06v.27c0 .6-.08 1.19-.14 1.79a40.47 40.47 0 0 1-22.42 32.1l-.39.19c-.37.18-.74.34-1.12.51l-.81.35-.72.29-1.26.47-.29.1a40.46 40.46 0 0 1-41.73-9.61l-5.65-5.65L137 60.86 76.16 0 60.93 15.24 0 76.16l15.23 15.23 60.93 60.93 15.23-15.23L129.47 99l-15.23-15.23-38.08 38.08-45.69-45.69 45.69-45.7L99 53.31l60.93 60.93 5.65 5.65a61.75 61.75 0 0 0 43.8 18.11 61.42 61.42 0 0 0 20.15-3.39l.51-.17c.63-.22 1.25-.46 1.87-.7l1.16-.46 1.19-.52c.6-.26 1.19-.52 1.78-.8l.52-.26A61.86 61.86 0 0 0 271 82.45v-.07q.13-1.35.21-2.73v-.43c.05-1 .08-2.1.08-3.15z"/></svg>
