<svg id="Layer_1" xmlns="http://www.w3.org/2000/svg" viewBox="0 0 1000 200"><style>.st1{fill:#666}</style><path d="M23.9 123.3V70.8H6.4v-23h17.5V11.7h31.5v36.1h27v23.1h-27v45.5c0 11.2 3.2 14.8 14.6 14.8 3.5 0 8.3-.4 10.4-1.2v22.7c-2.4.6-14 1.6-20.9 1.6-31.1-.1-35.6-11.3-35.6-31z"/><path d="M79.7 126c0-24.2 20.5-37.6 66.6-41.4V82c0-7.7-3.9-12.6-14.2-12.6-13.4 0-24.8 5.5-34.5 13L84.2 64.3c10.4-9.5 26.2-18.7 52.4-18.7 28.8 0 40.6 14.2 40.6 41.2v40.4c0 12.6.8 20.3 3 25.6h-31.5c-1.4-4.3-2.4-9.5-2.4-15.4-9.7 10.8-21.1 16.9-36.6 16.9-16.2.1-30-10.4-30-28.3zm66.6-4.5V102c-25 2.6-35.7 8.9-35.7 18.5 0 6.7 4.7 10 11.6 10 11 0 18.7-3.7 24.1-9z"/><path d="M178.5 138.8l12.6-17.7c9.5 8.3 23.6 13.6 36.4 13.6 9.9 0 16.7-3.4 16.7-10.2 0-7.3-5.5-10-19.9-12.6-19.9-3.5-41.2-8.3-41.2-32.9 0-21.1 17.3-33.3 40.8-33.3 21.5 0 34.5 5.5 46.1 14.8l-12.4 17.9C247 71.1 236.5 67 226.7 67c-9.1 0-14.2 3.5-14.2 9.3 0 6.3 5.7 8.9 18.7 11.2 20.7 3.5 42.6 8.3 42.6 32.1 0 25.4-22.1 35.5-46.3 35.5-23-.1-38.4-7.2-49-16.3z"/><path d="M287 123.3V70.8h-17.5v-23H287V11.7h31.5v36.1h27v23.1h-27v45.5c0 11.2 3.2 14.8 14.6 14.8 3.5 0 8.3-.4 10.4-1.2v22.7c-2.4.6-14 1.6-20.9 1.6-31.1-.1-35.6-11.3-35.6-31z"/><path d="M339.9 189.3l6.7-24.4c3 .8 10.4 2.8 19.9 2.8 6.9 0 10.8-2.6 13.4-9.1l2-5.1-40.2-105.7h32.7l23.1 68.2h.4l23.3-68.2h30.7l-44.1 116C400.6 182 391 193 369.9 193c-15.6 0-24.5-2.2-30-3.7z"/><g><circle cx="976.7" cy="138" r="16.9" fill="#e12529"/></g><g><path class="st1" d="M692.6 47.8h31.7v17.5h.2c5.7-8.9 15.8-19.7 35.5-19.7h1l-.4 28.2c-1.2-.2-6.3-.6-8.3-.6-12.6 0-22.1 6.7-28 14.4v65.2h-31.7v-105zM766.1 7h31.7v80l32.7-39.2h34.1L830.4 87l36.3 65.8H834L810.7 110l-12.8 14.4v28.4h-31.7V7z"/><path class="st1" d="M858.9 138.8l12.6-17.7c9.5 8.3 23.6 13.6 36.5 13.6 9.8 0 16.7-3.4 16.7-10.2 0-7.3-5.5-10-19.9-12.6-19.9-3.5-41.2-8.3-41.2-32.9 0-21.1 17.3-33.3 40.8-33.3 21.5 0 34.5 5.5 46.1 14.8l-12.4 17.9C927.5 71 917 66.9 907.2 66.9c-9.1 0-14.2 3.5-14.2 9.3 0 6.3 5.7 8.9 18.7 11.2 20.7 3.5 42.6 8.3 42.6 32.1 0 25.4-22.1 35.5-46.3 35.5-23.1 0-38.4-7.1-49.1-16.2zM633.8 45.4c-30.3 0-54.9 24.6-54.9 54.9 0 30.3 24.6 54.9 54.9 54.9 30.3 0 54.9-24.6 54.9-54.9.1-30.3-24.5-54.9-54.9-54.9zm0 81.4c-14.7 0-26.6-11.9-26.6-26.6 0-14.7 11.9-26.6 26.6-26.6 14.7 0 26.6 11.9 26.6 26.6 0 14.8-11.9 26.6-26.6 26.6zM561 47.8l-9.7 37.8c-3 10.8-4.7 18.5-7.3 31.9h-.4c-2.8-13.6-4.3-21.3-7.5-32.3l-9.7-37.4h-24.6l-9.1 36.8c-3 11.4-4.7 19.1-7.3 32.9h-.4c-2.4-13.6-4.1-21.1-6.9-32.1L469 47.8h-7.4l-13.9 36.3 20.1 68.7H497l15.8-64h.4l15.8 64h29.4l30.7-105H561z"/></g></svg>