<svg xmlns="http://www.w3.org/2000/svg" viewBox="0 0 1250 500"><path d="M241.2 370.2c0 56.1-50 101.6-111.7 101.6S17.8 426.3 17.8 370.2c0-56.1 50-101.6 111.7-101.6s111.7 45.5 111.7 101.6" fill="#e21f26"/><path d="M45.5 373.9c-7.8 29.5 21.6 59.2 40.7 67.5 16.8 7.3 50 12.1 73.4-2-37.5-3.5-91.4-13.8-113-65.5" fill="#b52025"/><path d="M195.1 362.7c-1.4 7.6-10.4 12.3-20.2 10.5-9.7-1.8-16.5-9.4-15-17 1.4-7.6 10.4-12.3 20.2-10.5 9.7 1.7 16.4 9.4 15 17" fill="#f28d92"/><path d="M129.5 261.1c-1.9 0-3.7.1-5.6.1-3.8-72.9 20.4-139 69.9-191.3l.6-.5C213 53.7 213 53.7 216.5 51.3c1.6-1.2 4-2.8 9.3-6.9l.6-.5.2-.7c1.2-4-1.5-10.4-4.9-17.6-.6-1.3-1.1-2.4-1.5-3.3-.4-1.1-1.4-1.7-2.5-1.7-1.2 0-2.1.7-3.1 1.5-1.1.8-2.4 1.9-3.6 1.9-.7 0-1.4-.3-2.2-1-.4-1-1.4-1.5-2.3-1.5-1.2 0-2.4 0-7.3 9.5-2.3 2.6-25.2 28.8-30.2 34.4-33 33.9-65.8 121.2-62.3 197.7-54.9 9.8-96.5 54.1-96.5 107.1 0 60.2 53.5 109.2 119.3 109.2s119.3-49 119.3-109.2-53.5-109.1-119.3-109.1m0 203.1c-57.4 0-104.1-42.2-104.1-94 0-45.6 36.2-83.8 84.1-92.2 1.6 9.9 4.6 24.4 7.6 30.4 1.5 3 2.5 5.4 3.4 7.3h-.2c-8.8-1.5-11.8-5.6-14.6-9.7-2.3-3.3-5.4-8.1-8.8-5.9-3.3 2.3-4.2 6.8-1.9 10.1 5.7 8.3 16.6 12.9 29.9 12.6 1.8 0 3.7-.2 5.6-.4 11.1-1.4 23.1-6.4 28.6-15.3 2.1-3.4 1-7.9-2.4-10-3.4-2.1-7.4 9.4-15.6 14.3-1.2.7-2.5 1.4-4 2.2-6.6-12-9.8-26.3-11.4-35.9-.1-.4-.1-.8-.2-1.2 1.3-.1 2.7-.1 4-.1 57.4 0 104.1 42.2 104.1 94 0 51.6-46.7 93.8-104.1 93.8M1234.6 220c-3.5 3.5-7.7 5.3-12.7 5.3-5 0-9.2-1.8-12.6-5.3-3.5-3.5-5.2-7.7-5.2-12.7 0-4.9 1.7-9.1 5.2-12.6s7.7-5.2 12.6-5.2c5 0 9.2 1.7 12.7 5.2s5.2 7.7 5.2 12.6c0 4.9-1.7 9.2-5.2 12.7zm-23.6-23.6c-3 3-4.5 6.6-4.5 10.9 0 4.3 1.5 7.9 4.5 11 3 3 6.6 4.5 10.9 4.5 4.3 0 7.9-1.5 10.9-4.5s4.5-6.7 4.5-11-1.5-7.9-4.5-10.9-6.6-4.5-10.9-4.5c-4.2 0-7.9 1.5-10.9 4.5zm10.6 1c2.4 0 4.2.2 5.4.7 2 .8 3 2.5 3 5 0 1.8-.6 3.1-1.9 3.9-.7.4-1.6.8-2.8.9 1.5.2 2.7.9 3.4 1.9.7 1 1.1 2.1 1.1 3v1.4c0 .5 0 .9.1 1.5 0 .5.1.9.2 1l.1.2h-3.2v-.2-.2l-.1-.6v-1.6c0-2.3-.6-3.8-1.9-4.5-.7-.4-2-.6-3.8-.6h-2.7v7.7h-3.5v-19.6h6.6zm3.7 3.1c-.9-.5-2.3-.7-4.2-.7h-3v7.1h3.1c1.5 0 2.6-.1 3.3-.4 1.4-.5 2-1.6 2-3.1.1-1.4-.3-2.4-1.2-2.9zM430.4 280.9c-5.7-.5-6.1-.6-6.1-9.3v-44.8c0-25.2-12.7-36.9-39.9-36.9-30.8 0-48.4 11.8-48.4 32.5 0 3.3.3 4.7 1.5 8.3l.8 2.2 31.6-6.9-1.2-3.5c-.3-.8-.3-1-.3-1.2 0-3.3 5.1-7 12.3-7 5.4 0 10.5 1.7 10.5 14.2v7l-28.6 8.2c-16.4 4.8-23.6 10.4-27.7 21.4-1.3 3.9-2 7.9-2 11.7 0 18.4 14.2 31.8 33.9 31.8 10.7 0 19.6-3.5 29.3-11.6 4.9 8.1 10.5 10.3 23.8 10.3h7.9l5.5-25.9-2.9-.5zm-55 .7c-5.4 0-8.4-3-8.4-8.4 0-2 .2-3.5 1.5-6.9l22.8-7.5v16c-3.1 2.4-4.3 3.1-5.8 3.8-3.3 1.9-7 3-10.1 3zM519.3 247.5c-5.4-4.1-21.5-11.2-33.1-15.2-9.7-3.4-11.6-5.9-11.6-8.8 0-4.4 6.1-7.5 14.9-7.5 7.4 0 16.1 2.6 23.4 7.1 2 1.1 4.5 2.7 7.2 4.5l2.8 1.8 10.8-27.7-2-1.2c-9.9-5.7-13.8-7.1-24.4-9.3-6.9-1.4-13-2.1-18.3-2.1-27.7 0-46.3 14.6-46.3 36.4 0 15.5 9.6 26.7 29.4 34.2l18.5 7.2c8.2 3.1 9.1 6.5 9.1 8.8 0 4.8-7.3 6.6-14.2 6.6-3.6 0-7.3-.6-11.2-2-7.4-2.4-11.4-4.2-22.5-11.1l-2.7-1.7-10.8 27.7 2.2 1.1c12.1 6.2 17.2 8.1 27.2 10.2 6.7 1.4 12.7 2.1 18.1 2.1 27.3 0 45.7-14.2 45.7-35.3 0-10.4-5-20.8-12.2-25.8zM681.9 191L665 240.9l-.3 1.3-20-51.2h-36l40.7 93.8c-5.6 16-8.8 22.7-15.8 33.4-5.6 8.9-9.4 13.4-19.6 24.3l-2.2 2.3 27.4 17.9 1.5-1.9c9.5-11.8 12.7-16.3 19.1-27.3 8.2-13.4 12.2-21.8 17.6-37.2L714.9 191h-33zM967 280.9c-5.5-.5-6.1-.6-6.1-9.3v-44.8c0-25.2-12.7-36.9-39.9-36.9-30.8 0-48.4 11.8-48.4 32.5 0 3.4.3 4.9 1.5 8.3l.8 2.2 31.6-6.9-1.2-3.5c-.3-.8-.3-.9-.3-1.2 0-3.3 5.1-7 12.3-7 5.5 0 10.5 1.7 10.5 14.2v7l-28.6 8.2c-16.4 4.8-23.6 10.4-27.7 21.4-1.3 3.9-2 7.9-2 11.7 0 18.4 14.2 31.8 33.9 31.8 10.7 0 19.6-3.5 29.3-11.6 4.9 8.1 10.5 10.3 23.8 10.3h8l5.5-25.9-3-.5zm-55 .7c-5.4 0-8.4-3-8.4-8.4 0-2 .2-3.5 1.4-6.9l22.8-7.5v16c-3.1 2.4-4.3 3.1-5.8 3.8-3.2 1.9-6.9 3-10 3zM1048.6 131.9V195c-3.7-2.3-6.5-3.2-10.9-4.1-3-.9-6.3-1.3-10.2-1.3-29.8 0-54 28.2-54 62.8 0 32.6 19.7 56.3 46.8 56.3 7.5 0 14.8-2.2 21.5-6.4 3-1.9 4.9-3.5 6.8-5.5v8.9h32.9V131.9h-32.9zm0 106.9v27.6c-6.1 9.1-13.7 14.3-21.1 14.3-11.5 0-19.5-12.5-19.5-30.4 0-18.6 10.3-32.7 23.9-32.7 7.3 0 14 3.5 15.5 8 .5 2.1 1.2 7.4 1.2 13.2zM1184.9 267.7l-2.5 1.6c-9.8 6.2-13.7 8.1-20 9.9-3.7 1.2-7.5 1.7-11.9 1.7-9.2 0-17.5-4.5-21.7-11.6-2-3.4-2.7-6.2-3.2-13.1h71v-14.5c0-30.6-19.6-51.9-47.7-51.9-32.2 0-56.5 26.8-56.5 62.3 0 34.3 21.5 56.5 54.7 56.5 12.7 0 24.7-2.6 36.5-7.9 2.9-1.3 6.8-3.2 11.7-5.9l2.2-1.2-12.6-25.9zm-57.5-34.2c2.7-11.3 9.6-17.5 19.6-17.5 9.3 0 15.1 2.9 16.3 17.5h-35.9zM298.6 307.9c-20 0-33.5-7.9-33.5-34.6v-54.5h-13.7V191h13.7v-29.4h32.6V191h27v27.9h-27V268c0 7.5 3.2 11.2 10.5 11.2 6 0 11.4-1.5 16.1-4.1v26.2c-6.9 4-14.8 6.6-25.7 6.6"/><path d="M583.8 307.9c-20 0-33.5-7.9-33.5-34.6v-54.5h-13.7V191h13.7v-29.4H583V191h27v27.9h-27V268c0 7.5 3.2 11.2 10.5 11.2 6 0 11.4-1.5 16.1-4.1v26.2c-6.9 4-14.8 6.6-25.8 6.6M760.8 307.9c-20 0-33.5-7.9-33.5-34.6v-54.5h-13.7V191h13.7v-29.4H760V191h27v27.9h-27V268c0 7.5 3.2 11.2 10.5 11.2 6 0 11.4-1.5 16.1-4.1v26.2c-6.9 4-14.8 6.6-25.8 6.6M865.6 222.9c-21.7 0-35 13.1-35 40.6V306H798V191h32.6v23.2c6.7-15.9 17.4-26.2 36.7-25.3V223h-1.7z"/></svg>