<svg id="5be15d2b-0096-4e56-9ec6-ec62f480df49" data-name="Layer 2" xmlns="http://www.w3.org/2000/svg" viewBox="0 0 65 35"><defs><style>.brand{fill:#5c5c5d}</style></defs><circle class="brand" cx="22.7" cy="3.2" r="2.9"/><rect class="brand" x="20.1" y="8.2" width="5.1" height="26.55" rx=".4" ry=".4"/><rect class="brand" x="29.5" y=".3" width="5.1" height="34.39" rx=".4" ry=".4"/><path class="brand" d="M15.7 8.2h-10V.7a.4.4 0 0 0-.4-.4H1a.4.4 0 0 0-.4.4v20.7a13.3 13.3 0 0 0 13.3 13.3h1.8a.4.4 0 0 0 .4-.4V30a.4.4 0 0 0-.4-.4h-1.8a8.2 8.2 0 0 1-8.2-8.2v-8.2h10a.4.4 0 0 0 .4-.4V8.5a.4.4 0 0 0-.4-.3zM60.5 12.1a13.2 13.2 0 1 0 2.3 15.6c0-.1-.1-.2-.2-.2h-5.5l-.6.2A8.2 8.2 0 0 1 43.1 23a.3.3 0 0 1 .3-.3H64a.4.4 0 0 0 .4-.4v-.8a13.2 13.2 0 0 0-3.9-9.4zm-2.4 6h-14a.3.3 0 0 1-.3-.3 8.2 8.2 0 0 1 7.2-4.4 8.1 8.1 0 0 1 7.2 4.4.3.3 0 0 1-.1.3z"/></svg>