<svg width="32" height="32" fill="none" xmlns="http://www.w3.org/2000/svg"><g clip-path="url(#clip0)" fill-rule="evenodd" clip-rule="evenodd" fill="#000"><path d="M16 22.005c-.529 0-1.039-.082-1.518-.235l-2.544 1.22-2.874 7.664a1 1 0 1 0 1.873.702l1.129-3.011c1.232.427 2.556.66 3.934.66 1.378 0 2.702-.233 3.935-.66l1.129 3.01a1 1 0 0 0 1.873-.701l-3.026-8.069-2.422-.806a5 5 0 0 1-1.489.226zm-3.232 4.466l1.055-2.812a6.992 6.992 0 0 0 2.177.346c.76 0 1.492-.121 2.178-.346l1.054 2.812a9.987 9.987 0 0 1-3.232.534 9.988 9.988 0 0 1-3.232-.534z"/><path d="M28 12C28 2 26 0 16 0S4 2 4 12s2 12 12 12 12-2 12-12zm-2.817-7c.336.83.571 1.968.7 3.574.078.963.117 2.094.117 3.426H6c0-1.332.04-2.463.117-3.426.129-1.606.364-2.745.7-3.574h18.366zM11 16a1.5 1.5 0 1 1-3 0 1.5 1.5 0 0 1 3 0zm13 0a1.5 1.5 0 1 1-3 0 1.5 1.5 0 0 1 3 0zm-8 5.5c1.956 0 3.619-1.247 3.99-2.91.186-.828-2.393-1.09-3.989-1.09s-4.196.168-3.99 1.09c.373 1.663 2.035 2.91 3.99 2.91z"/></g><defs><clipPath id="clip0"><path fill="#fff" d="M0 0h32v32H0z"/></clipPath></defs></svg>