<svg width="3116" height="310" fill="none" xmlns="http://www.w3.org/2000/svg"><path d="M1165 8.486L1178 0h28l9 8.486v51.917h11.5l8.5 9.926v75.935h12v109.823h9v-21.965h27v-75.877-.499c0-21.781 17.68-39.437 39.5-39.437s39.5 17.656 39.5 39.437V221.143h13V101.337h11V83.365h8V48.422h3V27.456h3v55.91h29v-55.91h3v34.943h3v20.966h13v78.873h65v21.965h33l12 12.979v-1.997l12-12.979h66v-17.971h3v-20.966h3v33.945h18v28.953h-5v37.939h16v-19.968h30v-3.993h12V248.1h21v4.992h34V242.11h20v-23.962h8v-3.993h17v-4.992h14v4.992h2v3.993h1v18.97h8v-54.912c0-14.336 11.64-25.958 26-25.958s26 11.622 26 25.958h.5l71.5 17.098v-22.09h2v9.984h2v13.063l8 1.913v36.94h44c0-9.925 8.06-17.971 18-17.971s18 8.046 18 17.971v18.97h14v5.99h11v-80.869l26.5-26.458h16.5v-27.456h3v9.984h3v17.472h17l26 26.458v45.925h24v5.991h47v-6.989h14v67.891h19v-84.864c0-9.925 8.06-17.971 18-17.971s18 8.046 18 17.971h21v-8.985h34l11-10.982v-20.967h27v-27.954h3v-20.967h3v48.921h27v31.949h65v16.973h25v-38.938l35-9.706v-21.244h12V91.765l15.5-31.862h22l17.5 31.862v57.494h16v108.825h11v-32.947h27v-8.986h12v-69.887h14v-83.38l13-2.481h1V8.486L2736 0h28l9 8.486v51.917h11.5l8.5 9.926v75.935h12v109.823h9v-21.965h27v-75.877-.499c0-21.781 17.68-39.437 39.5-39.437s39.5 17.656 39.5 39.437V221.143h13V101.337h11V83.365h8V48.422h3V27.456h3v55.91h29v-55.91h3v34.943h3v20.966h13v78.873h65v21.965h33l12 12.979V310H0V195.185l12-12.979h66v-17.971h3v-20.966h3v33.945h18v28.953h-5v37.939h16v-19.968h30v-3.993h12V248.1h21v4.992h34V242.11h20v-23.962h8v-3.993h17v-4.992h14v4.992h2v3.993h1v18.97h8v-54.912c0-14.336 11.641-25.958 26-25.958s26 11.622 26 25.958h.5l71.5 17.098v-22.09h2v9.984h2v13.063l8 1.913v36.94h44c0-9.925 8.059-17.971 18-17.971s18 8.046 18 17.971v18.97h14v5.99h11v-80.869l26.5-26.458H564v-27.456h3v9.984h3v17.472h17l26 26.458v45.925h24v5.991h47v-6.989h14v67.891h19v-84.864c0-9.925 8.059-17.971 18-17.971s18 8.046 18 17.971h21v-8.985h34l11-10.982v-20.967h27v-27.954h3v-20.967h3v48.921h27v31.949h65v16.973h25v-38.938l35-9.706v-21.244h12V91.765l15.5-31.862h22l17.5 31.862v57.494h16v108.825h11v-32.947h27v-8.986h12v-69.887h14v-83.38l13-2.481h1V8.486z" fill="#bfe6ea"/></svg>
