<svg width="80" height="80" fill="none" xmlns="http://www.w3.org/2000/svg"><circle cx="40" cy="40" r="40" fill="#007A87"/><path d="M40 67.172c0 1.781 2.154 2.674 3.414 1.414l11.414-11.414A4 4 0 0 0 56 54.343V40H40v27.172z" fill="#fff"/><path d="M67.172 40c1.781 0 2.674-2.154 1.414-3.414L57.172 25.172A4 4 0 0 0 54.343 24H40v16h27.172zM12.828 40c-1.781 0-2.674 2.154-1.414 3.414l11.414 11.414A4 4 0 0 0 25.657 56H40V40H12.828z" fill="#BFE6EA"/><path d="M40 12.828c0-1.781-2.154-2.674-3.414-1.414L25.172 22.828A4 4 0 0 0 24 25.657V40h16V12.828z" fill="#fff"/><path fill-rule="evenodd" clip-rule="evenodd" d="M40.242 31.967c-.063-.252-.421-.252-.485 0l-1.265 5.062a.25.25 0 0 1-.311.18l-5.016-1.436c-.25-.071-.43.24-.243.42l3.75 3.627a.25.25 0 0 1 0 .36l-3.75 3.626c-.187.181-.008.492.242.42l5.017-1.434a.25.25 0 0 1 .311.18l1.265 5.06c.064.253.422.253.486 0l1.265-5.06a.25.25 0 0 1 .311-.18l5.017 1.434c.25.072.43-.239.242-.42l-3.75-3.627a.25.25 0 0 1 0-.359l3.75-3.626c.187-.181.008-.492-.243-.42l-5.016 1.434a.25.25 0 0 1-.311-.18l-1.266-5.06z" fill="#FF5A5F"/></svg>