<svg width="64" height="64" fill="none" xmlns="http://www.w3.org/2000/svg"><path fill="#fff" d="M0 0h64v64H0z"/><circle cx="32" cy="32" r="32" fill="#F52"/><path d="M32.222 8.299c-.1-.399-.666-.399-.765 0l-3.92 15.681a.394.394 0 0 1-.491.284l-15.541-4.446c-.395-.113-.678.377-.383.662l11.62 11.237c.161.155.161.412 0 .566L11.123 43.52c-.295.286-.012.776.383.663l15.54-4.446a.394.394 0 0 1 .491.284L31.457 55.7c.1.398.665.398.765 0l3.92-15.681a.394.394 0 0 1 .491-.284l15.541 4.446c.395.113.678-.377.383-.663l-11.62-11.236a.394.394 0 0 1 0-.566l11.62-11.236c.295-.286.012-.776-.383-.663l-15.54 4.446a.394.394 0 0 1-.492-.284L32.222 8.3z" fill="#fff"/></svg>