<svg width="183" height="64" fill="none" xmlns="http://www.w3.org/2000/svg"><path d="M32 59.172c0 1.781 2.154 2.674 3.414 1.414l11.414-11.414A4 4 0 0 0 48 46.343V32H32v27.172z" fill="#fff"/><path d="M59.172 32c1.781 0 2.674-2.154 1.414-3.414L49.172 17.172A4 4 0 0 0 46.343 16H32v16h27.172zM4.828 32c-1.781 0-2.674 2.154-1.414 3.414l11.414 11.414A4 4 0 0 0 17.657 48H32V32H4.828z" fill="#BFE6EA"/><path d="M32 4.828c0-1.781-2.154-2.674-3.414-1.414L17.172 14.828A4 4 0 0 0 16 17.657V32h16V4.828z" fill="#fff"/><path fill-rule="evenodd" clip-rule="evenodd" d="M32.242 23.967c-.063-.252-.421-.252-.485 0l-1.265 5.062a.25.25 0 0 1-.311.18l-5.016-1.436c-.25-.071-.43.24-.243.42l3.75 3.627a.25.25 0 0 1 0 .36l-3.75 3.626c-.187.181-.008.492.242.42l5.017-1.434a.25.25 0 0 1 .311.18l1.265 5.06c.063.253.422.253.485 0l1.266-5.06a.25.25 0 0 1 .311-.18l5.017 1.434c.25.072.43-.239.242-.42l-3.75-3.627a.25.25 0 0 1 0-.359l3.75-3.626c.187-.181.008-.492-.243-.42l-5.016 1.434a.25.25 0 0 1-.311-.18l-1.266-5.06z" fill="#007A87"/><path d="M78.096 25.616c.288.768.816 1.224 1.536 1.224h.288c.72 0 1.272-.456 1.536-1.224L85.2 14.648l3.744 10.968c.264.768.792 1.224 1.512 1.224h.288c.72 0 1.272-.48 1.536-1.224l4.968-13.92c.072-.168.144-.408.144-.6 0-.792-.672-1.416-1.464-1.416-.72 0-1.224.456-1.44 1.056l-3.864 11.568-3.792-11.496c-.216-.696-.744-1.176-1.488-1.176h-.216c-.744 0-1.248.48-1.488 1.176l-3.792 11.496-3.864-11.544a1.505 1.505 0 0 0-1.464-1.08c-.816 0-1.512.624-1.512 1.44 0 .192.048.408.12.576l4.968 13.92zm21.4-.36c0 .816.647 1.464 1.487 1.464.816 0 1.464-.648 1.464-1.464V11.144c0-.816-.648-1.464-1.464-1.464-.84 0-1.488.648-1.488 1.464v14.112zm6.248.024c0 .792.648 1.44 1.464 1.44.792 0 1.44-.648 1.44-1.44V14.624l8.64 11.184c.408.528.84.888 1.536.888h.12c.816 0 1.44-.648 1.44-1.464V11.12a1.45 1.45 0 0 0-1.464-1.44c-.792 0-1.44.648-1.44 1.44v10.32l-8.4-10.872c-.408-.504-.816-.864-1.536-.864h-.312a1.48 1.48 0 0 0-1.488 1.488V25.28zm17.761-.168c0 .84.648 1.488 1.488 1.488h4.776c5.28 0 8.928-3.672 8.928-8.4v-.048c0-4.728-3.648-8.352-8.928-8.352h-4.776c-.84 0-1.488.648-1.488 1.488v13.824zm2.952-1.2V12.488h3.312c3.528 0 5.832 2.424 5.832 5.712v.048c0 3.288-2.304 5.664-5.832 5.664h-3.312zm18.201 1.344c0 .816.648 1.464 1.464 1.464.84 0 1.488-.648 1.488-1.464V20l5.736-7.848c.216-.288.408-.648.408-1.056 0-.792-.576-1.44-1.44-1.44-.624 0-1.056.36-1.416.888l-4.752 6.768-4.68-6.744c-.36-.528-.792-.888-1.44-.888-.84 0-1.488.624-1.488 1.416 0 .408.144.744.336 1.032l5.784 7.944v5.184z" fill="#BFE6EA"/><path d="M74.688 53.328a2.445 2.445 0 0 0 2.464 2.464 2.445 2.445 0 0 0 2.464-2.464v-6.72h9.088v6.72a2.445 2.445 0 0 0 2.464 2.464 2.445 2.445 0 0 0 2.464-2.464V35.472a2.445 2.445 0 0 0-2.464-2.464 2.445 2.445 0 0 0-2.464 2.464v6.592h-9.088v-6.592a2.445 2.445 0 0 0-2.464-2.464 2.445 2.445 0 0 0-2.464 2.464v17.856zm21.977.16c0 1.28.991 2.304 2.271 2.304 1.024 0 1.857-.576 2.273-1.536l1.568-3.68h9.856l1.504 3.52c.448 1.024 1.216 1.696 2.368 1.696 1.312 0 2.336-1.056 2.336-2.368 0-.32-.096-.64-.256-.992L110.777 34.8c-.544-1.216-1.504-1.952-2.848-1.952h-.288c-1.344 0-2.336.736-2.88 1.952l-7.808 17.632c-.16.352-.288.704-.288 1.056zm7.936-7.264l3.104-7.392 3.104 7.392h-6.208zm26.983 9.76c3.584 0 5.952-1.056 7.968-2.816.448-.384.832-.992.832-1.76 0-1.248-1.056-2.272-2.304-2.272-.576 0-1.088.224-1.472.544-1.408 1.12-2.784 1.76-4.864 1.76-3.84 0-6.496-3.2-6.496-7.04v-.064c0-3.84 2.72-6.976 6.496-6.976 1.76 0 3.2.576 4.576 1.6.352.224.8.48 1.472.48 1.344 0 2.432-1.056 2.432-2.4 0-.864-.448-1.568-.96-1.952-1.856-1.376-4.128-2.272-7.488-2.272-6.88 0-11.68 5.216-11.68 11.584v.064c0 6.432 4.896 11.52 11.488 11.52zm12.329-2.656a2.445 2.445 0 0 0 2.464 2.464 2.445 2.445 0 0 0 2.464-2.464v-4.48l2.816-2.624 6.4 8.384c.544.704 1.12 1.184 2.08 1.184 1.44 0 2.496-1.024 2.496-2.4 0-.736-.288-1.248-.672-1.728l-6.88-8.64 6.304-5.888c.544-.512.896-1.088.896-1.856 0-1.216-.896-2.272-2.272-2.272-.864 0-1.472.352-2.08.96l-9.088 9.024v-7.52a2.445 2.445 0 0 0-2.464-2.464 2.445 2.445 0 0 0-2.464 2.464v17.856zm29.793 2.592c4.832 0 8.224-2.496 8.224-6.944v-.064c0-3.904-2.56-5.536-7.104-6.72-3.872-.992-4.832-1.472-4.832-2.944v-.064c0-1.088.992-1.952 2.88-1.952 1.536 0 3.072.544 4.704 1.504.384.224.768.352 1.248.352 1.28 0 2.304-.992 2.304-2.272 0-.96-.544-1.632-1.088-1.952-2.016-1.28-4.384-1.984-7.104-1.984-4.576 0-7.84 2.688-7.84 6.752v.064c0 4.448 2.912 5.696 7.424 6.848 3.744.96 4.512 1.6 4.512 2.848v.064c0 1.312-1.216 2.112-3.232 2.112-2.176 0-4.032-.768-5.728-2.016a2.37 2.37 0 0 0-1.408-.448c-1.28 0-2.304.992-2.304 2.272 0 .768.384 1.472.928 1.856a14.459 14.459 0 0 0 8.416 2.688z" fill="#fff"/></svg>